<svg xmlns="http://www.w3.org/2000/svg" width="126" height="60.991" viewBox="0 0 126 60.991">
  <g id="Group_9" data-name="Group 9" transform="translate(-535 -313.91)">
    <g id="Group_3" data-name="Group 3" transform="translate(535 313.91)">
      <text id="Meets" transform="translate(63 51.991)" fill="#fff" font-size="45" font-family="BasicSans-SemiBold, Basic Sans" font-weight="600"><tspan x="-62.685" y="0">Meets</tspan></text>
      <g id="Group_2" data-name="Group 2" transform="translate(52.292 0)">
        <g id="Group_4" data-name="Group 4" transform="translate(0 0)">
          <path id="Path_1" data-name="Path 1" d="M10.958,0c6.052,0,10.958,5.474,10.958,12.228S10.958,30.263,10.958,30.263,0,18.981,0,12.228,4.906,0,10.958,0Z" transform="translate(0 0)" fill="#3d9bf7"/>
        </g>
      </g>
    </g>
    <path id="Icon_awesome-car-alt" data-name="Icon awesome-car-alt" d="M11.962,8.545l-.306-.766L11.112,6.42A3.039,3.039,0,0,0,8.276,4.5H4.813A3.039,3.039,0,0,0,1.977,6.42L1.434,7.778l-.306.766A1.741,1.741,0,0,0,0,10.172v1.309a1.731,1.731,0,0,0,.436,1.143V14.1a.873.873,0,0,0,.873.873h.873a.873.873,0,0,0,.873-.873v-.873h6.981V14.1a.873.873,0,0,0,.873.873h.873a.873.873,0,0,0,.873-.873V12.624a1.73,1.73,0,0,0,.436-1.143V10.172A1.741,1.741,0,0,0,11.962,8.545ZM3.6,7.068a1.309,1.309,0,0,1,1.215-.823H8.276a1.309,1.309,0,0,1,1.215.823l.543,1.359H3.054L3.6,7.068ZM2.181,11.475a.87.87,0,1,1,0-1.74,1.679,1.679,0,0,1,1.309,1.3C3.49,11.562,2.705,11.475,2.181,11.475Zm8.726,0c-.524,0-1.309.087-1.309-.435a1.679,1.679,0,0,1,1.309-1.3.87.87,0,1,1,0,1.74Z" transform="translate(591.706 314.672)" fill="#eef7ff"/>
  </g>
</svg>
